<?xml version="1.0" encoding="utf-8"?>
<!-- Generator: Adobe Illustrator 16.0.0, SVG Export Plug-In . SVG Version: 6.00 Build 0)  -->
<!DOCTYPE svg PUBLIC "-//W3C//DTD SVG 1.1//EN" "http://www.w3.org/Graphics/SVG/1.1/DTD/svg11.dtd">
<svg version="1.1" xmlns="http://www.w3.org/2000/svg" xmlns:xlink="http://www.w3.org/1999/xlink" x="0px" y="0px" width="30px"
	 height="30px" viewBox="0 0 30 30" enable-background="new 0 0 30 30" xml:space="preserve">
<g id="Layer_1">
	<path fill="#666666" d="M15.001,29C7.281,29,1,22.72,1,15S7.281,1,15.001,1C22.72,1,29,7.28,29,15S22.72,29,15.001,29z
		 M15.001,2.514C8.115,2.514,2.513,8.115,2.513,15s5.602,12.486,12.488,12.486c6.884,0,12.486-5.602,12.486-12.486
		S21.885,2.514,15.001,2.514z"/>
	<path fill="#666666" d="M19.611,18.791c0-1.072-0.346-1.972-1.036-2.698c-0.663-0.697-1.626-1.227-2.873-1.599V9.49
		c0.604,0.096,1.087,0.338,1.453,0.726c0.486,0.518,0.73,1.194,0.73,2.031h1.623l0.017-0.059c0.029-1.132-0.364-2.126-1.179-2.982
		c-0.681-0.717-1.57-1.116-2.644-1.233V6.181h-1.25v1.786c-0.999,0.104-1.842,0.452-2.512,1.075
		c-0.803,0.747-1.204,1.678-1.204,2.793c0,1.062,0.373,1.943,1.118,2.646c0.644,0.605,1.519,1.076,2.598,1.428v5.134
		c-0.586-0.094-1.098-0.313-1.532-0.663c-0.593-0.477-0.889-1.174-0.889-2.089h-1.623L10.39,18.35
		c-0.029,1.295,0.439,2.33,1.403,3.104c0.787,0.633,1.677,0.994,2.658,1.11v1.255h1.25v-1.242c1.067-0.09,1.963-0.416,2.666-1.01
		C19.196,20.867,19.611,19.942,19.611,18.791z M13.17,13.351c-0.489-0.415-0.734-0.934-0.734-1.555c0-0.7,0.226-1.268,0.678-1.702
		c0.336-0.324,0.783-0.526,1.337-0.609v4.58C13.911,13.846,13.475,13.609,13.17,13.351z M17.159,20.482
		c-0.381,0.312-0.868,0.503-1.457,0.578v-4.758c0.712,0.252,1.233,0.545,1.561,0.878c0.432,0.438,0.647,0.983,0.647,1.634
		C17.91,19.517,17.66,20.072,17.159,20.482z"/>
</g>
<g id="Layer_2">
</g>
</svg>
