<?xml version="1.0" encoding="utf-8"?>
<!-- Generator: Adobe Illustrator 19.0.0, SVG Export Plug-In . SVG Version: 6.00 Build 0)  -->
<svg version="1.1" id="Layer_1" xmlns="http://www.w3.org/2000/svg" xmlns:xlink="http://www.w3.org/1999/xlink" x="0px" y="0px"
	 viewBox="0 0 40 40" style="enable-background:new 0 0 40 40;" xml:space="preserve">
<style type="text/css">
	.st1{fill:#383838;}
</style>
<g id="XMLID_67_">
	<g id="Layer_1_157_">
		<g id="XMLID_129_">
			<rect id="XMLID_144_" x="16" y="21.4" class="st1" width="3.6" height="1"/>
			<rect id="XMLID_143_" x="8.1" y="5" class="st1" width="1.5" height="10.6"/>
			<rect id="XMLID_142_" x="26.1" y="5" class="st1" width="1.5" height="10.6"/>
			<g id="XMLID_139_">
				<rect id="XMLID_141_" x="10.9" y="10.6" class="st1" width="1.5" height="10.6"/>
				<rect id="XMLID_140_" x="23.3" y="10.6" class="st1" width="1.5" height="10.6"/>
			</g>
			<path id="XMLID_136_" class="st1" d="M20.1,30.3c-0.4-0.4-0.8-0.9-0.9-1.5c-0.3-1-0.7-1.1-0.7-1.1l-0.3,0.1l0.6,0.4l-0.9,0.3
				l-0.9-0.3l0.6-0.4l-0.3-0.1c0,0-0.3,0.1-0.7,1.1c-0.6,1.6-2.5,2.8-3,2.8c0,0,0,0,0,0c0,0-0.1,0-0.1,0l0,0.6l0.7-0.5l0.6,0.7
				l0.4-0.7l0.4,1l0.7-1l0.4,0.1l0.2-0.6l0.9,0l-0.5-0.9l0.6-0.3l0.6,0.3l-0.5,0.9l0.9,0l0.2,0.6l0.4-0.1l0.7,1l0.3-0.9
				C20.3,31.4,20.1,30.9,20.1,30.3z M17.8,30l-0.8-0.6l0.8-0.7l0.8,0.7L17.8,30z"/>
			<path id="XMLID_133_" class="st1" d="M26.4,35c-3,0-5.5-2.4-5.5-5.5s2.4-5.5,5.5-5.5s5.5,2.4,5.5,5.5S29.4,35,26.4,35z
				 M26.4,25.1c-2.5,0-4.4,2-4.4,4.4s2,4.4,4.4,4.4s4.4-2,4.4-4.4S28.9,25.1,26.4,25.1z"/>
			<polygon id="XMLID_132_" class="st1" points="26.7,29.3 26.7,25.8 25.7,25.8 25.7,30.2 25.7,30.2 25.7,30.3 29,30.3 29,29.3 			
				"/>
			<path id="XMLID_131_" class="st1" d="M20.4,27.1c-0.6-1-1.4-2-2.4-2.1l0,0c-0.1,0-0.1,0-0.2,0c-0.1,0-0.1,0-0.2,0l0,0
				c-1.2,0.1-2,1.4-2.7,2.5c-0.8,1.4-1.3,2-2,1.8c0-4.5,0.3-5.3,0.3-5.4c0-0.1,0.1-0.2,0.2-0.3l1.1-1c0.2-0.2,0.4-0.5,0.4-0.8v-0.3
				h0.3v-1.4h0.3l0.1-3.9H20l0.1,3.4l0,0.5h0.3v0.9l0.1,0.5h0.3v0.3c0,0.3,0.1,0.6,0.4,0.8l1.1,1c0.1,0.1,0.2,0.2,0.2,0.3
				c0,0,0,0.1,0.1,0.3c0.3-0.2,0.6-0.4,0.9-0.6c0-0.1,0-0.1-0.1-0.1c-0.1-0.2-0.3-0.4-0.4-0.6l-1.1-1c0,0,0-0.1,0-0.1v-0.5
				c0-0.3-0.1-0.5-0.3-0.6V20c0-0.2-0.1-0.5-0.3-0.6L21,16.1c0-0.4-0.4-0.8-0.8-0.8h-4.7c-0.4,0-0.8,0.3-0.8,0.8l-0.1,3.3
				c-0.2,0.1-0.3,0.4-0.3,0.6v0.8c-0.2,0.1-0.3,0.4-0.3,0.6v0.5c0,0,0,0.1,0,0.1l-1.1,1c-0.1,0.1-0.3,0.3-0.4,0.5
				c-0.1,0.2-0.5,1.2-0.5,5.9c0,0.1,0,0.5,0.3,0.7l0.1,0l0,0c0.3,0.2,0.6,0.2,0.9,0.2c1.2,0,1.9-1.3,2.6-2.4c0.6-1,1.3-2.1,2-2.1
				c0.8,0,1.4,1,2,2.1c0.1,0.1,0.2,0.3,0.3,0.4C20.1,28,20.2,27.6,20.4,27.1z"/>
			<polygon id="XMLID_130_" class="st1" points="12.9,29.4 12.9,29.4 12.9,29.4 			"/>
		</g>
	</g>
</g>
</svg>
