<?xml version="1.0" encoding="utf-8"?>
<!-- Generator: Adobe Illustrator 19.0.0, SVG Export Plug-In . SVG Version: 6.00 Build 0)  -->
<svg version="1.1" id="Layer_1" xmlns="http://www.w3.org/2000/svg" xmlns:xlink="http://www.w3.org/1999/xlink" x="0px" y="0px"
	 viewBox="0 0 40 40" style="enable-background:new 0 0 40 40;" xml:space="preserve">
<style type="text/css">
	.st1{fill:#383838;}
</style>
<g id="XMLID_34_"> 
	<g id="Layer_1_33_">
		<g id="XMLID_166_">
			<path id="XMLID_184_" class="st1" d="M18.7,29.8C18.7,29.8,18.7,29.8,18.7,29.8c-0.6,0-2.4-1.2-2.9-2.7c-0.3-0.9-0.6-1-0.6-1
				l-0.3,0.1l0.6,0.4l-0.9,0.2l-0.9-0.2l0.6-0.4L13.9,26c0,0-0.3,0.1-0.6,1c-0.5,1.5-2.4,2.7-2.9,2.7c0,0,0,0,0,0c0,0-0.1,0-0.1,0
				l0,0.5l0.7-0.5l0.6,0.7l0.4-0.7l0.3,1l0.7-1l0.4,0.1l0.2-0.5l0.8,0l-0.5-0.8l0.6-0.3l0.6,0.3l-0.5,0.8l0.8,0l0.2,0.5l0.4-0.1
				l0.7,1l0.3-1l0.4,0.7l0.6-0.7l0.7,0.5L18.7,29.8C18.8,29.8,18.7,29.8,18.7,29.8z M14.5,28.1l-0.7-0.6l0.7-0.7l0.7,0.7L14.5,28.1z
				"/>
			<path id="XMLID_181_" class="st1" d="M28.6,20.6C28.6,20.6,28.6,20.6,28.6,20.6c-0.6,0-2.4-1.2-2.9-2.7c-0.3-0.9-0.6-1-0.6-1
				l-0.3,0.1l0.6,0.4l-0.9,0.2l-0.9-0.2l0.6-0.4l-0.3-0.1c0,0-0.3,0.1-0.6,1c-0.5,1.5-2.4,2.7-2.9,2.7c0,0,0,0,0,0c0,0-0.1,0-0.1,0
				l0,0.5l0.7-0.5l0.6,0.7l0.4-0.7l0.3,1l0.7-1l0.4,0.1l0.2-0.5l0.8,0l-0.5-0.8l0.6-0.3l0.6,0.3l-0.5,0.8l0.8,0l0.2,0.5l0.4-0.1
				l0.7,1l0.3-1l0.4,0.7l0.6-0.7l0.7,0.5L28.6,20.6C28.7,20.6,28.7,20.6,28.6,20.6z M24.5,19l-0.7-0.6l0.7-0.7l0.7,0.7L24.5,19z"/>
			<g id="XMLID_175_">
				<path id="XMLID_177_" class="st1" d="M30,13.1c-0.1-0.2-0.3-0.4-0.4-0.6l-1-1c0,0,0-0.1,0-0.1V11c0-0.3-0.1-0.5-0.3-0.6V9.6
					c0-0.3-0.1-0.5-0.3-0.6l-0.1-3.2c0-0.5-0.4-0.8-0.8-0.8h-4.6c-0.5,0-0.8,0.4-0.8,0.8L21.4,9c-0.2,0.2-0.3,0.4-0.3,0.6v0.7
					c-0.2,0.1-0.3,0.4-0.3,0.7l0,0.5c0,0,0,0.1,0,0.1l-1.1,1c-0.1,0.1-0.3,0.3-0.4,0.5c-0.1,0.2-0.5,1.2-0.5,5.8
					c0,0.2,0.1,0.6,0.4,0.8l0.1,0l0,0c0.3,0.2,0.6,0.2,0.9,0.2c1.2,0,1.9-1.3,2.6-2.3c0.6-1,1.2-2,1.9-2c0.7,0,1.3,1,1.9,2
					c0.6,1.1,1.4,2.3,2.6,2.3c0.3,0,0.6-0.1,0.9-0.2l0,0c0.4-0.2,0.5-0.6,0.5-0.8C30.5,14.3,30.1,13.3,30,13.1z M19.8,18.8
					C19.8,18.8,19.8,18.8,19.8,18.8C19.8,18.8,19.8,18.8,19.8,18.8L19.8,18.8z M27.4,17c-0.7-1.1-1.4-2.4-2.7-2.5l0,0
					c-0.1,0-0.1,0-0.2,0c-0.1,0-0.1,0-0.2,0l0,0c-1.2,0.1-2,1.4-2.7,2.5c-0.8,1.4-1.3,1.9-1.8,1.8c0-4.3,0.3-5.1,0.3-5.2
					c0-0.1,0.1-0.2,0.2-0.3l1.1-1c0.2-0.2,0.4-0.6,0.4-0.9v-0.2h0.3V9.9h0.3l0.1-3.8h4.1l0.1,3.3l0,0.5H27v0.8l0.1,0.6h0.3v0.2
					c0,0.3,0.2,0.6,0.4,0.9l1.1,1c0.1,0.1,0.2,0.2,0.2,0.3c0,0,0.3,0.9,0.3,5.1C28.8,19,28.3,18.5,27.4,17z"/>
				<rect id="XMLID_176_" x="22.8" y="10.2" class="st1" width="3.5" height="1.1"/>
			</g>
			<path id="XMLID_172_" class="st1" d="M18.5,27.6c-0.3-0.3-0.7-0.8-1.2-1.6c-0.7-1.1-1.4-2.4-2.7-2.5l0,0c-0.1,0-0.1,0-0.2,0
				c-0.1,0-0.1,0-0.2,0l0,0c-1.2,0.1-2,1.4-2.7,2.5c-0.8,1.4-1.3,1.9-1.8,1.8c0-4.3,0.3-5.1,0.3-5.2c0-0.1,0.1-0.2,0.2-0.3l1.1-1
				c0.2-0.2,0.4-0.6,0.4-0.9v-0.2h0.3v-1.4h0.3l0.1-3.8h4.1l0.1,3.3l0,0.5H17v0.8l0.1,0.6h0.3v0.2c0,0.3,0.2,0.6,0.4,0.9l1.1,1
				c0.1,0.1,0.2,0.2,0.2,0.3c0,0,0.2,0.6,0.3,3.1c0.3-0.5,0.6-1,1-1.4c-0.1-1.6-0.3-2.1-0.4-2.2c-0.1-0.2-0.3-0.4-0.4-0.6l-1-1
				c0,0,0-0.1,0-0.1v-0.5c0-0.3-0.1-0.5-0.3-0.6v-0.7c0-0.3-0.1-0.5-0.3-0.6l-0.1-3.2c0-0.5-0.4-0.8-0.8-0.8h-4.6
				c-0.5,0-0.8,0.4-0.8,0.8l-0.1,3.2c-0.2,0.2-0.3,0.4-0.3,0.6v0.7c-0.2,0.1-0.3,0.4-0.3,0.7l0,0.5c0,0,0,0.1,0,0.1l-1.1,1
				c-0.1,0.1-0.3,0.3-0.4,0.5c-0.1,0.2-0.5,1.2-0.5,5.8c0,0.2,0.1,0.6,0.4,0.8l0.1,0l0,0c0.3,0.2,0.6,0.2,0.9,0.2
				c1.2,0,1.9-1.3,2.6-2.3c0.6-1,1.2-2,1.9-2c0.7,0,1.3,1,1.9,2c0.5,0.9,1.1,1.9,2,2.2C18.4,28.3,18.5,27.9,18.5,27.6z M9.8,27.7
				L9.8,27.7C9.8,27.7,9.8,27.7,9.8,27.7C9.8,27.7,9.8,27.7,9.8,27.7z"/>
			<path id="XMLID_169_" class="st1" d="M25.3,35c-3.3,0-5.9-2.7-5.9-5.9s2.7-5.9,5.9-5.9s5.9,2.7,5.9,5.9S28.6,35,25.3,35z
				 M25.3,24.2c-2.7,0-4.8,2.2-4.8,4.8s2.2,4.8,4.8,4.8s4.8-2.2,4.8-4.8S28,24.2,25.3,24.2z"/>
			<polygon id="XMLID_168_" class="st1" points="25.7,28.8 25.7,25 24.6,25 24.6,29.8 24.6,29.8 24.6,29.9 28.2,29.9 28.2,28.8 			
				"/>
			<rect id="XMLID_167_" x="12.8" y="18.9" class="st1" width="3.5" height="1.1"/>
		</g>
	</g>
</g>
</svg>
