<?xml version="1.0" encoding="utf-8"?>
<!-- Generator: Adobe Illustrator 16.0.0, SVG Export Plug-In . SVG Version: 6.00 Build 0)  -->
<!DOCTYPE svg PUBLIC "-//W3C//DTD SVG 1.1//EN" "http://www.w3.org/Graphics/SVG/1.1/DTD/svg11.dtd">
<svg version="1.1" xmlns="http://www.w3.org/2000/svg" xmlns:xlink="http://www.w3.org/1999/xlink" x="0px" y="0px" width="30px"
	 height="30px" viewBox="0 0 30 30" enable-background="new 0 0 30 30" xml:space="preserve">
<g id="Layer_1">
	<rect x="6.086" y="1" fill="#666666" width="2.213" height="18.274"/>
	<rect x="10.138" y="1" fill="#666666" width="2.214" height="28"/>
	<polygon fill="#666666" points="8.299,19.274 1.745,19.274 8.299,14.399 	"/>
	<polygon fill="#666666" points="12.352,29 5.798,29 12.352,24.125 	"/>
	<path fill="#666666" d="M22.884,14.632c0.349,0,0.691,0.028,1.029,0.07V1h-2.213v13.726C22.088,14.67,22.481,14.632,22.884,14.632z
		"/>
	<path fill="#666666" d="M19.863,15.177V1H17.65v15.424C18.314,15.901,19.059,15.48,19.863,15.177z"/>
	<polygon fill="#666666" points="23.392,22.639 23.392,18.108 22.095,18.108 22.095,23.809 22.105,23.809 22.105,23.936 
		26.349,23.936 26.349,22.639 	"/>
	<path fill="#666666" d="M22.989,29.953c-3.859,0-7-3.141-7-7s3.139-7,7-7c3.859,0,7,3.141,7,7S26.849,29.953,22.989,29.953z
		 M22.989,17.25c-3.145,0-5.704,2.559-5.704,5.703s2.56,5.703,5.704,5.703s5.703-2.559,5.703-5.703S26.134,17.25,22.989,17.25z"/>
</g>
<g id="Layer_2">
</g>
</svg>
