<?xml version="1.0" encoding="utf-8"?>
<!-- Generator: Adobe Illustrator 20.1.0, SVG Export Plug-In . SVG Version: 6.00 Build 0)  -->
<svg version="1.1" id="Layer_1" xmlns="http://www.w3.org/2000/svg" xmlns:xlink="http://www.w3.org/1999/xlink" x="0px" y="0px"
	 viewBox="0 0 18 18" style="enable-background:new 0 0 18 18;" xml:space="preserve">
<style type="text/css">
	.st0{fill:#666666;}
</style>
<g>
	<rect x="6.4" y="0" class="st0" width="1.3" height="18.1"/>
	<rect x="10.3" y="0" class="st0" width="1.3" height="18.1"/>
	<g>
		<rect x="12.9" y="12.9" class="st0" width="0.6" height="4.5"/>
		<rect x="16.8" y="12.9" class="st0" width="0.6" height="4.5"/>
		<rect x="13.5" y="12.9" class="st0" width="3.9" height="0.6"/>
		<rect x="13.5" y="16.8" class="st0" width="3.9" height="0.6"/>
	</g>
	<g>
		<rect x="0.6" y="12.9" class="st0" width="0.6" height="4.5"/>
		<rect x="4.5" y="12.9" class="st0" width="0.6" height="4.5"/>
		<rect x="1.2" y="12.9" class="st0" width="3.9" height="0.6"/>
		<rect x="1.2" y="16.8" class="st0" width="3.9" height="0.6"/>
	</g>
	<rect x="0.6" y="11.6" class="st0" width="4.5" height="0.6"/>
	<rect x="0.6" y="10.3" class="st0" width="4.5" height="0.6"/>
	<rect x="0.6" y="9" class="st0" width="4.5" height="0.6"/>
	<rect x="0.6" y="7.7" class="st0" width="4.5" height="0.6"/>
	<rect x="8.4" y="7.7" class="st0" width="1.3" height="0.6"/>
	<rect x="8.4" y="9" class="st0" width="1.3" height="0.6"/>
	<rect x="8.4" y="10.3" class="st0" width="1.3" height="0.6"/>
	<rect x="8.4" y="11.6" class="st0" width="1.3" height="0.6"/>
	<rect x="8.4" y="12.9" class="st0" width="1.3" height="4.5"/>
	<rect x="12.9" y="11.6" class="st0" width="4.5" height="0.6"/>
	<rect x="12.9" y="10.3" class="st0" width="4.5" height="0.6"/>
	<rect x="12.9" y="9" class="st0" width="4.5" height="0.6"/>
	<rect x="12.9" y="7.7" class="st0" width="4.5" height="0.6"/>
	<rect x="1.2" y="12.9" class="st0" width="3.2" height="3.9"/>
	<rect x="13.4" y="12.9" class="st0" width="3.5" height="3.9"/>
</g>
</svg>
