<?xml version="1.0" encoding="utf-8"?>
<!-- Generator: Adobe Illustrator 16.0.0, SVG Export Plug-In . SVG Version: 6.00 Build 0)  -->
<!DOCTYPE svg PUBLIC "-//W3C//DTD SVG 1.1//EN" "http://www.w3.org/Graphics/SVG/1.1/DTD/svg11.dtd">
<svg version="1.1" xmlns="http://www.w3.org/2000/svg" xmlns:xlink="http://www.w3.org/1999/xlink" x="0px" y="0px" width="54px"
	 height="54px" viewBox="0 0 54 54" enable-background="new 0 0 54 54" xml:space="preserve">
<g id="Layer_1">
	<g>
		<g>
			<path fill="#FFFFFF" d="M25.541,40.06c-0.38,0-0.698-0.297-0.72-0.682l-0.309-5.451l-4.675-0.041
				c-0.385-0.003-0.699-0.308-0.715-0.692l-0.515-12.35l-2.338,0.141c-0.377,0.019-0.706-0.248-0.758-0.621L13.886,8.844
				c-0.056-0.395,0.22-0.76,0.615-0.816c0.392-0.054,0.76,0.219,0.816,0.614l1.531,10.862l2.407-0.145
				c0.19-0.015,0.383,0.055,0.527,0.185c0.144,0.13,0.229,0.312,0.237,0.506l0.516,12.398l4.666,0.041
				c0.38,0.003,0.693,0.301,0.715,0.681l0.347,6.127c0.022,0.398-0.282,0.739-0.68,0.762C25.569,40.06,25.555,40.06,25.541,40.06z"
				/>
			<path fill="#FFFFFF" d="M35.03,40.06c-0.375,0-0.692-0.291-0.72-0.67l-0.394-5.461l-6.139-0.042
				c-0.367-0.002-0.673-0.279-0.713-0.644l-1.348-12.408l-3.076,0.151c-0.294,0.013-0.597-0.17-0.709-0.461l-4.45-11.522
				c-0.144-0.372,0.042-0.79,0.414-0.934c0.371-0.143,0.789,0.042,0.933,0.414l4.263,11.035l3.233-0.159
				c0.389-0.018,0.712,0.264,0.753,0.644l1.353,12.445l6.163,0.042c0.376,0.002,0.688,0.294,0.715,0.67l0.441,6.127
				c0.028,0.398-0.271,0.743-0.668,0.772C35.064,40.06,35.047,40.06,35.03,40.06z"/>
			<path fill="#FFFFFF" d="M44.467,40.06c-0.375,0-0.691-0.291-0.719-0.67l-0.393-5.461l-6.139-0.042
				c-0.382-0.002-0.696-0.302-0.716-0.684l-0.656-12.38l-5.508,0.163c-0.284,0.017-0.515-0.131-0.648-0.361L23.054,9.104
				c-0.199-0.346-0.08-0.788,0.266-0.986c0.347-0.199,0.787-0.08,0.986,0.266l6.419,11.147l5.782-0.171
				c0.393-0.028,0.722,0.292,0.743,0.684l0.657,12.405l6.126,0.042c0.376,0.002,0.688,0.294,0.715,0.67l0.441,6.127
				c0.028,0.398-0.271,0.743-0.668,0.772C44.502,40.06,44.485,40.06,44.467,40.06z"/>
		</g>
		<path fill="#FFFFFF" d="M45.278,46H8.722C8.323,46,8,45.677,8,45.278V8.722C8,8.323,8.323,8,8.722,8
			c0.398,0,0.722,0.323,0.722,0.722v35.833h35.833c0.399,0,0.722,0.324,0.722,0.722C46,45.677,45.677,46,45.278,46z"/>
	</g>
</g>
<g id="Layer_2">
</g>
</svg>
