<?xml version="1.0" encoding="utf-8"?>
<!-- Generator: Adobe Illustrator 16.0.0, SVG Export Plug-In . SVG Version: 6.00 Build 0)  -->
<!DOCTYPE svg PUBLIC "-//W3C//DTD SVG 1.1//EN" "http://www.w3.org/Graphics/SVG/1.1/DTD/svg11.dtd">
<svg version="1.1" xmlns="http://www.w3.org/2000/svg" xmlns:xlink="http://www.w3.org/1999/xlink" x="0px" y="0px" width="30px"
	 height="30px" viewBox="0 0 30 30" enable-background="new 0 0 30 30" xml:space="preserve">
<g id="Layer_1">
	<path fill="#666666" d="M14.769,23c0-4.546,3.686-8.232,8.232-8.232c0.26,0,0.516,0.015,0.77,0.039C21.179,8.229,14.999,1,14.999,1
		S6.207,11.282,5.2,18.479c-0.046,0.301-0.072,0.607-0.085,0.917c-0.002,0.012-0.002,0.022-0.003,0.036
		c-0.002,0.041-0.003,0.081-0.003,0.124c-0.003,0.065-0.003,0.131-0.003,0.197c0,0.063,0,0.126,0.003,0.187
		C5.217,24.962,9.604,29,14.999,29c0.736,0,1.451-0.081,2.141-0.223C15.675,27.291,14.769,25.252,14.769,23z M12.372,24.637
		c-0.825,0.506-2.219,0.042-2.926-0.743c-0.585-0.647-1.146-1.666-1.491-3.18c-0.761-3.345,3.05-9.21,3.05-9.21
		c-0.73,2.444-0.743,4.766-0.143,6.691c0.587,1.888,1.394,3.783,1.815,4.298C13.376,23.348,13.197,24.13,12.372,24.637z"/>
	<polygon fill="#666666" points="23.403,22.686 23.403,18.155 22.106,18.155 22.106,23.855 22.116,23.855 22.116,23.983 
		26.359,23.983 26.359,22.686 	"/>
	<path fill="#666666" d="M23,30c-3.86,0-7-3.14-7-7c0-3.86,3.139-7,7-7c3.859,0,7,3.14,7,7C30,26.86,26.859,30,23,30z M23,17.297
		c-3.145,0-5.704,2.559-5.704,5.703s2.56,5.703,5.704,5.703s5.703-2.558,5.703-5.703S26.145,17.297,23,17.297z"/>
</g>
<g id="Layer_2">
</g>
</svg>
