<?xml version="1.0" encoding="utf-8"?>
<!-- Generator: Adobe Illustrator 19.0.0, SVG Export Plug-In . SVG Version: 6.00 Build 0)  -->
<svg version="1.1" id="Layer_1" xmlns="http://www.w3.org/2000/svg" xmlns:xlink="http://www.w3.org/1999/xlink" x="0px" y="0px"
	 viewBox="0 0 40 40" style="enable-background:new 0 0 40 40;" xml:space="preserve">
<style type="text/css">
	.st0{fill:#666666;}
</style>
<g id="Layer_2">
</g>
<g id="Layer_2_1_">
</g>
<g id="Layer_1_1_">
	<path class="st0" d="M29.9,24.8c0,5.1-4.4,9.2-9.9,9.2c-5.4,0-9.8-4-9.9-9.1c0-0.1,0-0.1,0-0.2c0-0.1,0-0.1,0-0.2c0,0,0-0.1,0-0.1
		c0,0,0,0,0,0c0-0.3,0-0.6,0.1-0.9C11.2,16.3,20,6,20,6s8.8,10.3,9.8,17.5c0,0.3,0.1,0.6,0.1,0.9c0,0,0,0,0,0c0,0,0,0.1,0,0.1
		C29.9,24.6,29.9,24.7,29.9,24.8z M17.4,29.6c0.8-0.5,1-1.3,0.3-2.1c-0.4-0.5-1.2-2.4-1.8-4.3c-0.6-1.9-0.6-4.2,0.1-6.7
		c0,0-3.8,5.9-3,9.2c0.3,1.5,0.9,2.5,1.5,3.2C15.2,29.7,16.5,30.1,17.4,29.6"/>
</g>
<g id="Layer_2_2_">
</g>
</svg>
