<?xml version="1.0" encoding="utf-8"?>
<!-- Generator: Adobe Illustrator 16.0.0, SVG Export Plug-In . SVG Version: 6.00 Build 0)  -->
<!DOCTYPE svg PUBLIC "-//W3C//DTD SVG 1.1//EN" "http://www.w3.org/Graphics/SVG/1.1/DTD/svg11.dtd">
<svg version="1.1" xmlns="http://www.w3.org/2000/svg" xmlns:xlink="http://www.w3.org/1999/xlink" x="0px" y="0px" width="30px"
	 height="30px" viewBox="0 0 30 30" enable-background="new 0 0 30 30" xml:space="preserve">
<g id="Layer_1">
</g>
<g id="Layer_2">
	<rect x="2" y="2" fill="#666666" width="26.033" height="2"/>
	<rect x="1.963" y="14" fill="#666666" width="26.148" height="2"/>
	<rect x="1.996" y="25.78" fill="#666666" width="26.116" height="2"/>
	<g>
		<g>
			<rect x="2.278" y="17.892" fill="#666666" width="1" height="7"/>
			<rect x="8.278" y="17.892" fill="#666666" width="1" height="7"/>
			<rect x="3.278" y="17.892" fill="#666666" width="6" height="1"/>
			<rect x="3.278" y="23.892" fill="#666666" width="6" height="1"/>
		</g>
		<g>
			<rect x="11.5" y="17.966" fill="#666666" width="1" height="7"/>
			<rect x="17.5" y="17.966" fill="#666666" width="1" height="7"/>
			<rect x="12.5" y="17.966" fill="#666666" width="6" height="1"/>
			<rect x="12.5" y="23.966" fill="#666666" width="6" height="1"/>
		</g>
		<g>
			<rect x="20.981" y="17.892" fill="#666666" width="1" height="7"/>
			<rect x="26.981" y="17.892" fill="#666666" width="1" height="7"/>
			<rect x="21.981" y="17.892" fill="#666666" width="6" height="1"/>
			<rect x="21.981" y="23.892" fill="#666666" width="6" height="1"/>
		</g>
	</g>
	<g>
		<path fill="#666666" d="M5.98,12.5c-1.993,0-3.614-1.621-3.614-3.614S3.987,5.272,5.98,5.272s3.614,1.621,3.614,3.614
			S7.973,12.5,5.98,12.5z M5.98,6.176c-1.495,0-2.71,1.216-2.71,2.71s1.216,2.71,2.71,2.71s2.71-1.216,2.71-2.71
			S7.475,6.176,5.98,6.176z"/>
		<path fill="#666666" d="M15.014,12.5c-1.993,0-3.614-1.621-3.614-3.614s1.621-3.614,3.614-3.614s3.614,1.621,3.614,3.614
			S17.007,12.5,15.014,12.5z M15.014,6.176c-1.495,0-2.71,1.216-2.71,2.71s1.215,2.71,2.71,2.71s2.71-1.216,2.71-2.71
			S16.509,6.176,15.014,6.176z"/>
		<path fill="#666666" d="M24.048,12.5c-1.993,0-3.614-1.621-3.614-3.614s1.621-3.614,3.614-3.614s3.614,1.621,3.614,3.614
			S26.041,12.5,24.048,12.5z M24.048,6.176c-1.495,0-2.71,1.216-2.71,2.71s1.216,2.71,2.71,2.71s2.71-1.216,2.71-2.71
			S25.543,6.176,24.048,6.176z"/>
	</g>
</g>
</svg>
