<?xml version="1.0" encoding="utf-8"?>
<!-- Generator: Adobe Illustrator 16.0.0, SVG Export Plug-In . SVG Version: 6.00 Build 0)  -->
<!DOCTYPE svg PUBLIC "-//W3C//DTD SVG 1.1//EN" "http://www.w3.org/Graphics/SVG/1.1/DTD/svg11.dtd">
<svg version="1.1" xmlns="http://www.w3.org/2000/svg" xmlns:xlink="http://www.w3.org/1999/xlink" x="0px" y="0px" width="30px"
	 height="30px" viewBox="0 0 30 30" enable-background="new 0 0 30 30" xml:space="preserve">
<g id="Layer_1">
	<path fill="#666666" d="M15.978,27.414l-7.885-5.76l-1.466-9.369L1,6.063V29h16.265C16.772,28.527,16.342,27.994,15.978,27.414z
		 M2.5,27.5V9.958l2.714,3.001l1.492,9.54l6.846,5.001H2.5z"/>
	<g>
		<path fill="#666666" d="M23.028,14.676c2.345,0,4.459,0.973,5.972,2.533V1H1v1.484l9.806,6.761l4.68,10.249
			C16.81,16.651,19.685,14.676,23.028,14.676z"/>
	</g>
	<path fill="#666666" d="M23.028,30.001c-3.86,0-7-3.14-7-7c0-3.86,3.139-7,7-7c3.859,0,7,3.14,7,7
		C30.027,26.861,26.887,30.001,23.028,30.001z M23.028,17.298c-3.145,0-5.704,2.559-5.704,5.703s2.56,5.703,5.704,5.703
		s5.703-2.558,5.703-5.703S26.172,17.298,23.028,17.298z"/>
	<polygon fill="#666666" points="23.404,22.687 23.404,18.156 22.107,18.156 22.107,23.856 22.116,23.856 22.116,23.984 
		26.359,23.984 26.359,22.687 	"/>
</g>
<g id="Layer_2">
</g>
</svg>
