<?xml version="1.0" encoding="utf-8"?>
<!-- Generator: Adobe Illustrator 16.0.0, SVG Export Plug-In . SVG Version: 6.00 Build 0)  -->
<!DOCTYPE svg PUBLIC "-//W3C//DTD SVG 1.1//EN" "http://www.w3.org/Graphics/SVG/1.1/DTD/svg11.dtd">
<svg version="1.1" xmlns="http://www.w3.org/2000/svg" xmlns:xlink="http://www.w3.org/1999/xlink" x="0px" y="0px" width="30px"
	 height="30px" viewBox="0 0 30 30" enable-background="new 0 0 30 30" xml:space="preserve">
<g id="Layer_1">
	<rect x="13.387" y="1.5" fill="#666666" width="13.515" height="1.17"/>
	<path fill="#666666" d="M15.416,3.562v4.513c0.273,0.376,0.438,0.834,0.438,1.333l0.096,3.301c0.237,0.364,0.366,0.793,0.366,1.239
		v0.351c0.25,0.369,0.388,0.809,0.388,1.265v0.071l0.869,0.82c0.228,0.215,0.545,0.544,0.777,0.987
		c0.086,0.143,0.218,0.416,0.345,1.06h6.52V3.562H15.416z"/>
	<path fill="#666666" d="M18.854,19.582c0.037,0.334,0.07,0.724,0.098,1.171h7.39v-1.171H18.854z"/>
	<path fill="#666666" d="M15.73,27.188c-0.011,0-0.022,0.001-0.033,0.001c-0.68,0-2.941-1.498-3.611-3.381
		c-0.411-1.155-0.783-1.3-0.783-1.3l-0.37,0.1l0.757,0.512l-1.122,0.298L9.443,23.12l0.757-0.512l-0.368-0.1
		c0,0-0.373,0.145-0.784,1.3c-0.67,1.883-2.933,3.381-3.609,3.381c-0.013,0-0.024-0.001-0.036-0.001
		c-0.033-0.005-0.066-0.006-0.097-0.012l0.042,0.678l0.879-0.583l0.719,0.847l0.442-0.854l0.419,1.229l0.843-1.229l0.518,0.071
		l0.223-0.658l1.047,0.05l-0.644-1.026l0.772-0.393l0.771,0.393l-0.643,1.026l1.047-0.05l0.225,0.658l0.515-0.071l0.845,1.229
		l0.418-1.229l0.443,0.854l0.718-0.847l0.88,0.583l0.041-0.678C15.796,27.182,15.764,27.183,15.73,27.188z M10.567,25.131
		l-0.919-0.712l0.92-0.843l0.92,0.843L10.567,25.131z"/>
	<path fill="#666666" d="M16.255,26.182c-1.347,0-2.255-1.505-3.056-2.833c-0.71-1.18-1.514-2.514-2.513-2.53
		c-1.002,0.016-1.805,1.35-2.512,2.527c-0.806,1.335-1.712,2.836-3.058,2.836c-0.299,0-0.614-0.077-0.938-0.229l-0.063-0.074
		c-0.357-0.264-0.46-0.621-0.456-0.856c-0.029-5.84,0.463-6.952,0.562-7.115c0.093-0.189,0.254-0.389,0.501-0.623l1.354-1.278
		l0.036-0.136v-0.628c0-0.274,0.126-0.526,0.346-0.692l0.06-0.045v-0.953c0-0.258,0.115-0.501,0.315-0.667l0.052-0.043l0.117-4.054
		c0-0.224,0.087-0.433,0.247-0.593c0.166-0.166,0.385-0.257,0.619-0.257h5.75c0.478,0,0.866,0.388,0.866,0.865l0.116,4.043
		l0.052,0.043c0.2,0.165,0.314,0.407,0.314,0.664v0.966l0.062,0.045c0.219,0.16,0.345,0.407,0.345,0.679v0.675l0.067,0.118
		l1.32,1.248c0.174,0.165,0.391,0.39,0.527,0.665c0.065,0.105,0.571,1.09,0.537,7.088c0.004,0.209-0.09,0.603-0.459,0.853
		l-0.098,0.027C16.913,26.092,16.572,26.182,16.255,26.182z M4.837,25.056c0.086,0.023,0.171,0.035,0.254,0.035
		c0.667,0,1.231-0.74,2.168-2.294c0.816-1.356,1.742-2.894,3.202-3.034l0.114-0.011l0.094,0.005l0.11-0.005v-0.014l0.13,0.027
		c1.466,0.145,2.428,1.745,3.201,3.031c0.936,1.552,1.5,2.291,2.168,2.291c0.125,0,0.251-0.025,0.385-0.078l0.095-0.037l0-0.102
		c0.02-5.392-0.407-6.408-0.426-6.449c-0.049-0.097-0.148-0.215-0.308-0.368l-1.31-1.236c-0.238-0.224-0.41-0.624-0.41-0.951v-0.425
		h-0.348L13.9,14.894l0-1.142h-0.324l-0.033-0.523l-0.121-4.227h-5.36l-0.138,4.75H7.584v1.691H7.179v0.425
		c0,0.326-0.173,0.726-0.41,0.951l-1.313,1.237c-0.157,0.15-0.255,0.269-0.302,0.363c-0.021,0.049-0.426,1.057-0.428,6.06
		l-0.061,0.361l-0.065,0.197h0.168L4.837,25.056z"/>
	<rect x="8.613" y="14.303" fill="#666666" width="4.135" height="1.18"/>
</g>
<g id="Layer_2">
</g>
</svg>
