<?xml version="1.0" encoding="utf-8"?>
<!-- Generator: Adobe Illustrator 16.0.0, SVG Export Plug-In . SVG Version: 6.00 Build 0)  -->
<!DOCTYPE svg PUBLIC "-//W3C//DTD SVG 1.1//EN" "http://www.w3.org/Graphics/SVG/1.1/DTD/svg11.dtd">
<svg version="1.1" xmlns="http://www.w3.org/2000/svg" xmlns:xlink="http://www.w3.org/1999/xlink" x="0px" y="0px"
	 width="21.661px" height="30.902px" viewBox="0 0 21.661 30.902" enable-background="new 0 0 21.661 30.902" xml:space="preserve">
<g id="Layer_1">
	<g>
		<path fill-rule="evenodd" clip-rule="evenodd" fill="#666666" d="M13.376,24.307c-0.105-0.359-0.197-0.774-0.418-1.018
			c-0.334-0.365-0.717-0.438-1.229-0.593c-0.762-0.231-1.996-0.619-1.996-0.619l-0.242-0.403l-0.001-0.659
			c0.667-0.595,1.131-1.637,1.131-2.727c0-1.661-1.073-2.779-2.307-2.779c-1.233,0-2.289,1.119-2.289,2.779
			c0,1.066,0.438,2.091,1.076,2.692l-0.001,0.694l-0.24,0.403c0,0-1.237,0.388-1.996,0.619c-0.514,0.156-0.896,0.228-1.229,0.593
			c-0.222,0.243-0.314,0.658-0.419,1.018c-0.284,0.972-0.358,1.376-0.358,1.376h10.876C13.736,25.683,13.662,25.279,13.376,24.307z"
			/>
		<path fill="#666666" d="M20.14,0H1.521C0.683,0,0,0.683,0,1.521V29.38c0,0.839,0.683,1.521,1.521,1.521H20.14
			c0.838,0,1.521-0.683,1.521-1.521V1.521C21.662,0.683,20.978,0,20.14,0z M20.162,1.521v2.768l-2.387-0.015V1.519L20.162,1.521z
			 M20.14,29.402L1.5,29.38L1.521,1.5l14.753,0.017v2.757c0,0.838,0.684,1.52,1.523,1.52h2.363V29.38
			C20.162,29.392,20.152,29.402,20.14,29.402z"/>
		<path fill-rule="evenodd" clip-rule="evenodd" fill="#666666" d="M11.906,15.928l-0.24,0.403c0,0-0.125,0.039-0.307,0.096
			c0.215,0.453,0.352,0.98,0.352,1.581c0,0.691-0.18,1.354-0.461,1.93h7.289c0,0-0.074-0.404-0.359-1.376
			c-0.104-0.359-0.197-0.774-0.418-1.018c-0.332-0.365-0.715-0.438-1.229-0.593c-0.76-0.231-1.996-0.619-1.996-0.619l-0.24-0.403
			l-0.002-0.659c0.666-0.595,1.133-1.637,1.133-2.727c0-1.661-1.074-2.779-2.309-2.779c-1.232,0-2.289,1.119-2.289,2.779
			c0,1.066,0.439,2.091,1.076,2.692V15.928z"/>
	</g>
</g>
<g id="Layer_2">
</g>
</svg>
