<?xml version="1.0" encoding="utf-8"?>
<!-- Generator: Adobe Illustrator 21.0.2, SVG Export Plug-In . SVG Version: 6.00 Build 0)  -->
<svg version="1.1" id="Layer_1" xmlns="http://www.w3.org/2000/svg" xmlns:xlink="http://www.w3.org/1999/xlink" x="0px" y="0px"
	 viewBox="0 0 16 16" style="enable-background:new 0 0 16 16;" xml:space="preserve">
<path d="M11,2.5V0l3,3h-2.5C11.2,3,11,2.8,11,2.5z M13,15H3V1h7.5V0h-8C2.2,0,2,0.2,2,0.5v15C2,15.8,2.2,16,2.5,16h11
	c0.3,0,0.5-0.2,0.5-0.5v-12h-1V15z M9.5,5.5h-1v6h1V5.5z M11.5,7.5h-1v4h1V7.5z M7.5,6.5h-1v5h1V6.5z M5.5,8.5h-1v3h1V8.5z"/>
</svg>
