<?xml version="1.0" encoding="utf-8"?>
<!-- Generator: Adobe Illustrator 19.0.0, SVG Export Plug-In . SVG Version: 6.00 Build 0)  -->
<svg version="1.1" id="Layer_1" xmlns="http://www.w3.org/2000/svg" xmlns:xlink="http://www.w3.org/1999/xlink" x="0px" y="0px"
	 viewBox="0 0 40 40" style="enable-background:new 0 0 40 40;" xml:space="preserve">
<style type="text/css">
	.st0{fill:#666666;}
</style>
<g id="Layer_1_1_">
	<path class="st0" d="M28.8,35.4L20.2,4.6c0,0,0,0,0,0c0,0,0-0.1-0.1-0.1c0-0.1-0.1-0.1-0.1-0.1c0,0,0,0,0,0C19.9,4.1,19.7,4,19.5,4
		c-0.3,0-0.6,0.2-0.7,0.6L11,35.4c-0.1,0.4,0.1,0.8,0.5,0.9c0.4,0.1,0.8-0.1,0.9-0.5l2.5-9.8h3.8v9.6c0,0.4,0.3,0.8,0.8,0.8
		c0.4,0,0.8-0.3,0.8-0.8V26h4.4l2.7,9.8c0.1,0.3,0.4,0.5,0.7,0.5c0.1,0,0.1,0,0.2,0C28.7,36.2,28.9,35.8,28.8,35.4z M18.8,16.5h-1.4
		l1.4-5.7V16.5z M20.3,10.3l1.7,6.2h-1.7V10.3z M15.3,24.5l1.7-6.6c0.1,0,0.1,0,0.2,0h1.6v6.5H15.3z M20.3,24.5V18H22
		c0.1,0,0.2,0,0.3-0.1l1.8,6.6L20.3,24.5L20.3,24.5z"/>
</g>
<g id="Layer_2">
</g>
</svg>
