<?xml version="1.0" encoding="utf-8"?>
<!-- Generator: Adobe Illustrator 16.0.0, SVG Export Plug-In . SVG Version: 6.00 Build 0)  -->
<!DOCTYPE svg PUBLIC "-//W3C//DTD SVG 1.1//EN" "http://www.w3.org/Graphics/SVG/1.1/DTD/svg11.dtd">
<svg version="1.1" xmlns="http://www.w3.org/2000/svg" xmlns:xlink="http://www.w3.org/1999/xlink" x="0px" y="0px" width="30px"
	 height="30px" viewBox="0 0 30 30" enable-background="new 0 0 30 30" xml:space="preserve">
<g id="Layer_1">
	<path fill="#666666" d="M14.769,23c0-1.037,0.2-2.024,0.549-2.938v-0.025h0.009c0.175-0.454,0.39-0.886,0.639-1.297h-0.648v-5.667
		h1.528c0.104,0,0.199-0.029,0.287-0.073l0.946,3.412c0.361-0.27,0.743-0.513,1.146-0.722L15.283,1.477
		c-0.001-0.005-0.005-0.009-0.006-0.014c-0.014-0.04-0.032-0.076-0.053-0.113c-0.023-0.045-0.05-0.085-0.083-0.124
		c-0.009-0.01-0.017-0.02-0.027-0.028c-0.122-0.127-0.286-0.209-0.463-0.196c-0.294,0.004-0.55,0.205-0.622,0.49L7.307,28.192
		c-0.087,0.348,0.124,0.7,0.471,0.788c0.348,0.087,0.7-0.124,0.788-0.472l2.133-8.472h3.321v8.313c0,0.358,0.291,0.649,0.649,0.649
		c0.358,0,0.649-0.291,0.649-0.649v-2.413C14.968,25.024,14.769,24.037,14.769,23z M15.318,6.456l1.476,5.32h-1.476V6.456z
		 M14.02,18.74h-2.995l1.436-5.704c0.06,0.019,0.119,0.037,0.184,0.037h1.376V18.74z M14.02,11.776h-1.242l1.242-4.935V11.776z"/>
	<polygon fill="#666666" points="23.403,22.686 23.403,18.155 22.106,18.155 22.106,23.855 22.116,23.855 22.116,23.983 
		26.359,23.983 26.359,22.686 	"/>
	<path fill="#666666" d="M23,30c-3.86,0-7-3.14-7-7c0-3.86,3.139-7,7-7c3.859,0,7,3.14,7,7C30,26.86,26.859,30,23,30z M23,17.297
		c-3.145,0-5.704,2.559-5.704,5.703s2.56,5.703,5.704,5.703s5.703-2.558,5.703-5.703S26.145,17.297,23,17.297z"/>
</g>
<g id="Layer_2">
</g>
</svg>
