<?xml version="1.0" encoding="utf-8"?>
<!-- Generator: Adobe Illustrator 16.0.0, SVG Export Plug-In . SVG Version: 6.00 Build 0)  -->
<!DOCTYPE svg PUBLIC "-//W3C//DTD SVG 1.1//EN" "http://www.w3.org/Graphics/SVG/1.1/DTD/svg11.dtd">
<svg version="1.1" xmlns="http://www.w3.org/2000/svg" xmlns:xlink="http://www.w3.org/1999/xlink" x="0px" y="0px" width="30px"
	 height="30px" viewBox="0 0 30 30" enable-background="new 0 0 30 30" xml:space="preserve">
<g id="Layer_1">
	<path fill="#666666" d="M7.076,12.01c-1.416-3.142-2.21-6.623-2.21-10.287h-1.5c0,4.281,1.021,8.327,2.824,11.915L7.076,12.01z"/>
	<path fill="#666666" d="M19.628,25.516H3.168c-0.505,0-0.916-0.215-1.129-0.59c-0.213-0.374-0.193-0.85,0.054-1.303l8.253-15.158
		c0.25-0.458,0.633-0.72,1.052-0.72c0.418,0,0.802,0.262,1.051,0.72l8.254,15.158c0.247,0.454,0.266,0.929,0.054,1.303
		C20.544,25.301,20.133,25.516,19.628,25.516z"/>
	<g>
		<path fill="#FFFFFF" d="M10.286,22.639c0-0.378,0.098-0.666,0.291-0.863c0.193-0.197,0.468-0.295,0.826-0.295
			c0.352,0,0.622,0.103,0.811,0.307c0.188,0.205,0.283,0.488,0.283,0.851c0,0.364-0.096,0.651-0.287,0.863
			c-0.191,0.212-0.46,0.318-0.807,0.318c-0.353,0-0.626-0.102-0.823-0.306C10.385,23.309,10.286,23.018,10.286,22.639z
			 M12.058,20.191h-1.295l-0.387-7.81h2.062L12.058,20.191z"/>
	</g>
	<path fill="#666666" d="M28.305,26.786c-2.264-0.153-4.45-0.596-6.513-1.311c-0.005,0.01-0.007,0.022-0.013,0.032
		c-0.296,0.521-0.786,0.882-1.367,1.059c2.475,0.959,5.127,1.556,7.893,1.732V26.786z"/>
</g>
<g id="Layer_2">
</g>
</svg>
