<?xml version="1.0" encoding="utf-8"?>
<!-- Generator: Adobe Illustrator 16.0.0, SVG Export Plug-In . SVG Version: 6.00 Build 0)  -->
<!DOCTYPE svg PUBLIC "-//W3C//DTD SVG 1.1//EN" "http://www.w3.org/Graphics/SVG/1.1/DTD/svg11.dtd">
<svg version="1.1" xmlns="http://www.w3.org/2000/svg" xmlns:xlink="http://www.w3.org/1999/xlink" x="0px" y="0px" width="54px"
	 height="54px" viewBox="0 0 54 54" enable-background="new 0 0 54 54" xml:space="preserve">
<g id="Layer_1">
	<g>
		<path fill="#FFFFFF" d="M42.847,44.805H11.155c-1.228,0-2.241-0.542-2.779-1.486c-0.532-0.938-0.498-2.1,0.097-3.19l15.89-29.185
			c0.605-1.112,1.566-1.75,2.636-1.75c1.071,0,2.032,0.638,2.637,1.751l15.894,29.184c0.594,1.093,0.628,2.253,0.095,3.188
			C45.088,44.262,44.075,44.805,42.847,44.805z M26.999,10.588c-0.543,0-1.058,0.374-1.412,1.022L9.697,40.796
			c-0.358,0.657-0.398,1.325-0.109,1.833c0.284,0.497,0.854,0.782,1.568,0.782h31.691c0.713,0,1.285-0.285,1.566-0.782
			c0.289-0.505,0.248-1.174-0.109-1.833L28.412,11.611C28.057,10.962,27.544,10.588,26.999,10.588z"/>
		<g>
			<path fill="#FFFFFF" d="M25.215,38.699c0-0.607,0.157-1.072,0.468-1.387c0.309-0.316,0.752-0.476,1.329-0.476
				c0.565,0,0.999,0.165,1.303,0.493c0.303,0.331,0.455,0.785,0.455,1.369c0,0.585-0.156,1.046-0.461,1.389
				c-0.308,0.341-0.741,0.511-1.297,0.511c-0.568,0-1.008-0.164-1.324-0.492C25.374,39.776,25.215,39.308,25.215,38.699z
				 M28.064,34.764h-2.083l-0.623-12.558h3.316L28.064,34.764z"/>
		</g>
	</g>
</g>
<g id="Layer_2">
</g>
</svg>
