<?xml version="1.0" encoding="utf-8"?>
<!-- Generator: Adobe Illustrator 16.0.0, SVG Export Plug-In . SVG Version: 6.00 Build 0)  -->
<!DOCTYPE svg PUBLIC "-//W3C//DTD SVG 1.1//EN" "http://www.w3.org/Graphics/SVG/1.1/DTD/svg11.dtd">
<svg version="1.1" xmlns="http://www.w3.org/2000/svg" xmlns:xlink="http://www.w3.org/1999/xlink" x="0px" y="0px" width="30px"
	 height="30px" viewBox="0 0 30 30" enable-background="new 0 0 30 30" xml:space="preserve">
<g id="Layer_1">
</g>
<g id="Layer_2">
	<g>
		<polygon fill="#666666" points="2.426,16.555 2.426,27.506 27.439,27.506 27.439,2.494 14.843,2.494 14.843,1 28.933,1 28.933,29 
			0.933,29 0.933,16.555 		"/>
		<g>
			<path fill="#666666" d="M7.384,1c3.562,0,6.452,2.889,6.452,6.451c0,0.077-0.003,0.154-0.006,0.232
				c-0.025,0.678-0.152,1.329-0.37,1.937c-1.376,4.524-6.075,10.424-6.075,10.424s-4.699-5.9-6.076-10.424
				c-0.217-0.608-0.345-1.259-0.37-1.937C0.937,7.605,0.933,7.528,0.933,7.451C0.933,3.889,3.822,1,7.384,1z"/>
			<path fill="#FFFFFF" d="M3.792,7.451c0-1.981,1.611-3.592,3.592-3.592s3.591,1.611,3.591,3.592s-1.611,3.592-3.591,3.592
				S3.792,9.432,3.792,7.451z M4.658,7.451c0,1.503,1.223,2.726,2.727,2.726c1.502,0,2.726-1.223,2.726-2.726
				c0-1.503-1.224-2.727-2.726-2.727C5.881,4.725,4.658,5.948,4.658,7.451z"/>
		</g>
	</g>
</g>
</svg>
