<?xml version="1.0" encoding="utf-8"?>
<!-- Generator: Adobe Illustrator 16.0.0, SVG Export Plug-In . SVG Version: 6.00 Build 0)  -->
<!DOCTYPE svg PUBLIC "-//W3C//DTD SVG 1.1//EN" "http://www.w3.org/Graphics/SVG/1.1/DTD/svg11.dtd">
<svg version="1.1" xmlns="http://www.w3.org/2000/svg" xmlns:xlink="http://www.w3.org/1999/xlink" x="0px" y="0px" width="30px"
	 height="30px" viewBox="0 0 30 30" enable-background="new 0 0 30 30" xml:space="preserve">
<g id="Layer_1">
</g>
<g id="Layer_2">
	<path fill="#666666" d="M16.116,27.506H2.426V16.555H0.933V29h16.444C16.9,28.553,16.476,28.054,16.116,27.506z"/>
	<g>
		<path fill="#666666" d="M7.384,1.001c3.562,0,6.452,2.889,6.452,6.451c0,0.077-0.003,0.154-0.006,0.232
			c-0.025,0.678-0.152,1.329-0.37,1.937c-1.376,4.524-6.075,10.424-6.075,10.424s-4.699-5.9-6.076-10.424
			c-0.217-0.608-0.345-1.259-0.37-1.937C0.937,7.606,0.933,7.529,0.933,7.452C0.933,3.89,3.822,1.001,7.384,1.001z"/>
		<path fill="#FFFFFF" d="M3.792,7.452c0-1.981,1.611-3.592,3.592-3.592s3.591,1.611,3.591,3.592s-1.611,3.592-3.591,3.592
			S3.792,9.433,3.792,7.452z M4.658,7.452c0,1.503,1.223,2.726,2.727,2.726c1.502,0,2.726-1.223,2.726-2.726
			c0-1.503-1.224-2.727-2.726-2.727C5.881,4.726,4.658,5.949,4.658,7.452z"/>
	</g>
	<path fill="#666666" d="M27.439,16.075c0.545,0.35,1.046,0.762,1.493,1.227V1H14.843v1.494h12.596V16.075z"/>
	<polygon fill="#666666" points="23.403,22.686 23.403,18.155 22.106,18.155 22.106,23.855 22.116,23.855 22.116,23.983 
		26.359,23.983 26.359,22.686 	"/>
	<path fill="#666666" d="M23,30c-3.86,0-7-3.14-7-7c0-3.86,3.139-7,7-7c3.859,0,7,3.14,7,7C30,26.86,26.859,30,23,30z M23,17.297
		c-3.145,0-5.704,2.559-5.704,5.703s2.56,5.703,5.704,5.703s5.703-2.558,5.703-5.703S26.145,17.297,23,17.297z"/>
</g>
</svg>
