<?xml version="1.0" encoding="utf-8"?>
<!-- Generator: Adobe Illustrator 19.0.0, SVG Export Plug-In . SVG Version: 6.00 Build 0)  -->
<svg version="1.1" id="Layer_1" xmlns="http://www.w3.org/2000/svg" xmlns:xlink="http://www.w3.org/1999/xlink" x="0px" y="0px"
	 viewBox="0 0 40 40" style="enable-background:new 0 0 40 40;" xml:space="preserve">
<style type="text/css">
	.st0{fill:#666666;}
</style>
<g id="Layer_1_1_">
	<path class="st0" d="M34.8,20c0,8.2-6.6,14.8-14.8,14.8S5.2,28.2,5.2,20S11.8,5.2,20,5.2S34.8,11.8,34.8,20z M30,20
		c0-5.5-4.5-10-10-10s-10,4.5-10,10c0,5.5,4.5,10,10,10S30,25.5,30,20z M23.7,20c0-2.1-1.7-3.7-3.7-3.7s-3.7,1.7-3.7,3.7
		c0,2.1,1.7,3.7,3.7,3.7S23.7,22.1,23.7,20z"/>
</g>
<g id="Layer_2">
</g>
</svg>
