<?xml version="1.0" encoding="utf-8"?>
<!-- Generator: Adobe Illustrator 16.0.0, SVG Export Plug-In . SVG Version: 6.00 Build 0)  -->
<!DOCTYPE svg PUBLIC "-//W3C//DTD SVG 1.1//EN" "http://www.w3.org/Graphics/SVG/1.1/DTD/svg11.dtd">
<svg version="1.1" xmlns="http://www.w3.org/2000/svg" xmlns:xlink="http://www.w3.org/1999/xlink" x="0px" y="0px" width="30px"
	 height="30px" viewBox="0 0 30 30" enable-background="new 0 0 30 30" xml:space="preserve">
<g id="Layer_1">
	<path fill="#666666" d="M14.903,24.448C9.728,24.395,5.548,20.188,5.548,15C5.548,9.78,9.78,5.548,15,5.548
		c5.187,0,9.394,4.179,9.447,9.354c1.689,0.3,3.203,1.108,4.367,2.271C28.926,16.463,29,15.742,29,15c0-7.732-6.27-14-14-14
		C7.269,1,1,7.269,1,15s6.269,14,14,14c0.741,0,1.463-0.075,2.173-0.186C16.012,27.65,15.204,26.137,14.903,24.448z"/>
	<path fill="#666666" d="M18.299,16.248c0.147-0.389,0.238-0.807,0.238-1.248c0-1.954-1.583-3.537-3.536-3.537
		S11.463,13.047,11.463,15c0,1.953,1.584,3.536,3.537,3.536c0.441,0,0.858-0.09,1.248-0.238C16.806,17.5,17.5,16.805,18.299,16.248z
		"/>
	<polygon fill="#666666" points="23.403,22.686 23.403,18.155 22.106,18.155 22.106,23.855 22.116,23.855 22.116,23.983 
		26.359,23.983 26.359,22.686 	"/>
	<path fill="#666666" d="M23,30c-3.86,0-7-3.14-7-7c0-3.86,3.139-7,7-7c3.859,0,7,3.14,7,7C30,26.86,26.859,30,23,30z M23,17.297
		c-3.145,0-5.704,2.559-5.704,5.703s2.56,5.703,5.704,5.703s5.703-2.558,5.703-5.703S26.145,17.297,23,17.297z"/>
</g>
<g id="Layer_2">
</g>
</svg>
