<?xml version="1.0" encoding="utf-8"?>
<!-- Generator: Adobe Illustrator 16.0.0, SVG Export Plug-In . SVG Version: 6.00 Build 0)  -->
<!DOCTYPE svg PUBLIC "-//W3C//DTD SVG 1.1//EN" "http://www.w3.org/Graphics/SVG/1.1/DTD/svg11.dtd">
<svg version="1.1" xmlns="http://www.w3.org/2000/svg" xmlns:xlink="http://www.w3.org/1999/xlink" x="0px" y="0px" width="30px"
	 height="30px" viewBox="0 0 30 30" enable-background="new 0 0 30 30" xml:space="preserve">
<g id="Layer_1">
	<path fill="#666666" d="M12.913,2.726C12.913,1.772,12.141,1,11.187,1l0,0c-0.952,0-1.726,0.772-1.726,1.726v19.462
		c0,0.953,0.773,1.726,1.726,1.726l0,0c0.954,0,1.727-0.772,1.727-1.726V2.726z"/>
	<rect x="15.133" y="10.707" fill="#666666" width="8.276" height="1.5"/>
	<rect x="15.133" y="5.302" fill="#666666" width="8.276" height="1.5"/>
	<path fill="#666666" d="M18.344,15.958h-3.211v1.5h1.487C17.124,16.883,17.702,16.377,18.344,15.958z"/>
	<path fill="#666666" d="M14.547,22.953c0-0.512,0.053-1.01,0.141-1.497c-0.843-1-2.09-1.65-3.501-1.65
		c-2.538,0-4.596,2.059-4.596,4.597c0,2.539,2.058,4.597,4.596,4.597c1.815,0,3.37-1.061,4.117-2.587
		C14.822,25.357,14.547,24.188,14.547,22.953z"/>
	<polygon fill="#666666" points="23.392,22.639 23.392,18.108 22.095,18.108 22.095,23.809 22.105,23.809 22.105,23.936 
		26.349,23.936 26.349,22.639 	"/>
	<path fill="#666666" d="M22.989,29.953c-3.859,0-7-3.141-7-7s3.139-7,7-7c3.859,0,7,3.141,7,7S26.849,29.953,22.989,29.953z
		 M22.989,17.25c-3.145,0-5.704,2.559-5.704,5.703s2.56,5.703,5.704,5.703s5.703-2.559,5.703-5.703S26.134,17.25,22.989,17.25z"/>
</g>
<g id="Layer_2">
</g>
</svg>
