<?xml version="1.0" encoding="utf-8"?>
<!-- Generator: Adobe Illustrator 19.0.0, SVG Export Plug-In . SVG Version: 6.00 Build 0)  -->
<svg version="1.1" id="Layer_1" xmlns="http://www.w3.org/2000/svg" xmlns:xlink="http://www.w3.org/1999/xlink" x="0px" y="0px"
	 viewBox="0 0 40 40" style="enable-background:new 0 0 40 40;" xml:space="preserve">
<style type="text/css"> 
	.st1{fill:#383838;}
</style>
<g id="XMLID_36_"> 
	<g id="Layer_1_46_">
		<path id="XMLID_4_" class="st1" d="M20.9,22.9c0-1.8,0.7-3.5,1.8-4.7c-0.8-0.9-1.9-1.5-3.2-1.5c-2.2,0-3.9,1.6-4.2,3.7
			c-4.7-0.4-8.3-4.5-8.1-9.2L6,11.1c-0.3,5.4,3.8,10,9.2,10.4c0.3,2.1,2.1,3.8,4.2,3.8c0.6,0,1.2-0.1,1.7-0.4
			C21,24.2,20.9,23.6,20.9,22.9z"/>
		<path class="st1" d="M28,28.9c-3.3,0-6-2.7-6-6s2.7-6,6-6s6,2.7,6,6S31.3,28.9,28,28.9z M28,18c-2.7,0-4.9,2.2-4.9,4.9
			s2.2,4.9,4.9,4.9s4.9-2.2,4.9-4.9S30.7,18,28,18z"/>
		<polygon id="XMLID_1_" class="st1" points="28.3,22.6 28.3,18.7 27.2,18.7 27.2,23.6 27.2,23.6 27.2,23.7 30.9,23.7 30.9,22.6 		
			"/>
	</g>
	<g id="Layer_2_19_">
	</g>
</g>
</svg>
