<?xml version="1.0" encoding="UTF-8" standalone="no"?>
<svg width="16px" height="20px" viewBox="0 0 16 20" version="1.1" xmlns="http://www.w3.org/2000/svg" xmlns:xlink="http://www.w3.org/1999/xlink">
    <!-- Generator: Sketch 43.2 (39069) - http://www.bohemiancoding.com/sketch -->
    <title>Group 3</title>
    <desc>Created with Sketch.</desc>
    <defs>
        <circle id="path-1" cx="7.91674805" cy="8.08325195" r="2.37502441"></circle>
        <rect id="path-2" x="7.12507324" y="1.74985352" width="1.58334961" height="5.54172363"></rect>
    </defs>
    <g id="Page-1" stroke="none" stroke-width="1" fill="none" fill-rule="evenodd">
        <g id="Group-3">
            <g id="Group-3-Copy-2" transform="translate(0.000000, 2.000000)">
                <path d="M7.91674805,14.5 C11.4606201,14.5 14.3334961,11.627124 14.3334961,8.08325195 C14.3334961,4.53937986 11.4606201,1.66650391 7.91674805,1.66650391 C4.37287596,1.66650391 1.5,4.53937986 1.5,8.08325195 C1.5,11.627124 4.37287596,14.5 7.91674805,14.5 Z M7.91674805,16 C3.54444883,16 0,12.4555512 0,8.08325195 C0,3.71095274 3.54444883,0.166503906 7.91674805,0.166503906 C12.2890473,0.166503906 15.8334961,3.71095274 15.8334961,8.08325195 C15.8334961,12.4555512 12.2890473,16 7.91674805,16 Z" id="Oval-Copy-8" fill="#39414D" fill-rule="nonzero"></path>
                <g id="Oval-Copy-8">
                    <use fill="#39414D" fill-rule="evenodd" xlink:href="#path-1"></use>
                    <circle stroke="#39414D" stroke-width="1.5" cx="7.91674805" cy="8.08325195" r="1.62502441"></circle>
                </g>
                <g id="Rectangle-5">
                    <use fill="#D8D8D8" fill-rule="evenodd" xlink:href="#path-2"></use>
                    <rect stroke="#39414D" stroke-width="1.5" x="7.87507324" y="2.49985352" width="1" height="4.04172363"></rect>
                </g>
                <polygon id="Line-Copy" fill="#39414D" fill-rule="nonzero" points="7.7888713 7.86578972 2.15756219 10.7435299 2.84013767 12.0792285 8.47144678 9.20148831"></polygon>
                <polygon id="Line-Copy-2" fill="#39414D" fill-rule="nonzero" points="7.69928582 9.20148831 13.3305949 12.0792285 14.0131704 10.7435299 8.3818613 7.86578972"></polygon>
            </g>
            <rect id="Rectangle-2-Copy" fill="#39414D" x="3" y="0" width="10" height="1.5"></rect>
            <rect id="Rectangle-2-Copy-4" fill="#39414D" x="3" y="18" width="10" height="1.5"></rect>
            <rect id="Rectangle-2-Copy" fill="#39414D" x="5" y="1" width="6" height="2"></rect>
            <rect id="Rectangle-2-Copy-3" fill="#39414D" x="5" y="17" width="6" height="2"></rect>
        </g>
    </g>
</svg>