<?xml version="1.0" encoding="utf-8"?>
<!-- Generator: Adobe Illustrator 16.0.0, SVG Export Plug-In . SVG Version: 6.00 Build 0)  -->
<!DOCTYPE svg PUBLIC "-//W3C//DTD SVG 1.1//EN" "http://www.w3.org/Graphics/SVG/1.1/DTD/svg11.dtd">
<svg version="1.1" xmlns="http://www.w3.org/2000/svg" xmlns:xlink="http://www.w3.org/1999/xlink" x="0px" y="0px" width="30px"
	 height="30px" viewBox="0 0 30 30" enable-background="new 0 0 30 30" xml:space="preserve">
<g id="Layer_1">
	<rect x="6.086" y="1" fill="#666666" width="2.213" height="18.274"/>
	<rect x="10.138" y="10.727" fill="#666666" width="2.214" height="18.273"/>
	<path fill="#666666" d="M23,14.768c0.309,0,0.613,0.02,0.913,0.053V1h-2.213v13.88C22.125,14.813,22.557,14.768,23,14.768z"/>
	<path fill="#666666" d="M19.863,15.391v-4.664H17.65v6.025C18.307,16.188,19.051,15.726,19.863,15.391z"/>
	<polygon fill="#666666" points="23.403,22.686 23.403,18.155 22.106,18.155 22.106,23.855 22.116,23.855 22.116,23.983 
		26.359,23.983 26.359,22.686 	"/>
	<path fill="#666666" d="M23,30c-3.86,0-7-3.14-7-7c0-3.86,3.139-7,7-7c3.859,0,7,3.14,7,7C30,26.86,26.859,30,23,30z M23,17.297
		c-3.145,0-5.704,2.559-5.704,5.703s2.56,5.703,5.704,5.703s5.703-2.558,5.703-5.703S26.145,17.297,23,17.297z"/>
</g>
<g id="Layer_2">
</g>
</svg>
