<?xml version="1.0" encoding="utf-8"?>
<!-- Generator: Adobe Illustrator 16.0.0, SVG Export Plug-In . SVG Version: 6.00 Build 0)  -->
<!DOCTYPE svg PUBLIC "-//W3C//DTD SVG 1.1//EN" "http://www.w3.org/Graphics/SVG/1.1/DTD/svg11.dtd">
<svg version="1.1" xmlns="http://www.w3.org/2000/svg" xmlns:xlink="http://www.w3.org/1999/xlink" x="0px" y="0px" width="30px"
	 height="30px" viewBox="0 0 30 30" enable-background="new 0 0 30 30" xml:space="preserve">
<g id="Layer_1">
	<path fill="#666666" d="M15,30C6.729,30,0,23.271,0,15C0,6.729,6.729,0,15,0s15,6.729,15,15C30,23.271,23.271,30,15,30z M15,2
		C7.832,2,2,7.832,2,15c0,7.168,5.832,13,13,13s13-5.832,13-13C28,7.832,22.168,2,15,2z"/>
	<g>
		<path fill="#666666" d="M13.661,8.806c0-0.428,0.117-0.757,0.352-0.988s0.568-0.347,1.003-0.347c0.421,0,0.749,0.116,0.983,0.347
			s0.352,0.56,0.352,0.988c0,0.408-0.117,0.729-0.352,0.963s-0.562,0.352-0.983,0.352c-0.435,0-0.769-0.117-1.003-0.352
			S13.661,9.213,13.661,8.806z M16.197,23.058h-2.394V11.791h2.394V23.058z"/>
	</g>
</g>
<g id="Layer_2">
</g>
</svg>
